<?xml version="1.0" encoding="UTF-8"?>
<svg width="41.049mm" height="41.049mm" version="1.1" viewBox="0 0 41.049 41.049" xmlns="http://www.w3.org/2000/svg">
 <g transform="translate(-60.362 -83.708)">
  <circle cx="80.887" cy="104.23" r="18.976" fill="none" opacity=".98" stroke="#7ebc01" stroke-width="3.097"/>
  <path d="m64.36 113.56a18.976 18.976 0 0 1 0.15843-18.926 18.976 18.976 0 0 1 16.442-9.3753" fill="none" opacity=".98" stroke="#ff5b01" stroke-opacity=".97647" stroke-width="3.097"/>
  <g transform="matrix(.041674 0 0 .041674 70.218 93.564)" fill="#f95f00" stroke-width="2.3996">
   <g fill="#f95f00" stroke-width="2.3996">
    <path d="m466.45 49.374c-7.065-8.308-17.368-13.071-28.267-13.071h-35.773v-11.19c0-13.847-11.267-25.113-25.113-25.113h-242.59c-13.848 0-25.112 11.266-25.112 25.112v11.19h-35.777c-10.899 0-21.203 4.764-28.267 13.071-6.992 8.221-10.014 19.019-8.289 29.624 9.4 57.8 45.775 108.86 97.4 136.87 4.717 11.341 10.059 22.083 16.008 32.091 19.002 31.975 42.625 54.073 68.627 64.76 2.635 26.644-15.094 51.885-41.794 57.9-0.057 0.013-0.097 0.033-0.153 0.046-5.211 1.245-9.09 5.921-9.09 11.513v54.363h-21.986c-19.602 0-35.549 15.947-35.549 35.549v28.058c0 6.545 5.305 11.85 11.85 11.85h267.99c6.545 0 11.85-5.305 11.85-11.85v-28.058c0-19.602-15.947-35.549-35.549-35.549h-21.988v-54.362c0-5.603-3.893-10.286-9.118-11.52-0.049-0.012-0.096-0.028-0.145-0.04-26.902-6.055-44.664-31.55-41.752-58.394 25.548-10.86 48.757-32.761 67.479-64.264 5.949-10.009 11.29-20.752 16.008-32.095 51.622-28.01 87.995-79.072 97.395-136.87 1.725-10.605-1.297-21.402-8.29-29.623zm-405.8 25.818c-0.616-3.787 0.431-7.504 2.949-10.466 2.555-3.004 6.277-4.726 10.214-4.726h35.777v21.802c0 34.186 4.363 67.3 12.632 97.583-32.496-25.679-54.87-62.982-61.572-104.19zm306.21 385.05c6.534 0 11.85 5.316 11.85 11.85v16.208h-244.29v-16.208c0-6.534 5.316-11.85 11.85-11.85zm-45.688-66.213v42.513h-129.21v-42.513zm-98.136-23.699c2.929-3.224 5.607-6.719 8.002-10.46 7.897-12.339 12.042-26.357 12.228-40.674 4.209 0.573 8.457 0.88 12.741 0.88 4.661 0 9.279-0.358 13.852-1.036 0.27 19.239 7.758 37.45 20.349 51.289h-67.172zm155.67-288.53c0 58.379-13.406 113.09-37.747 154.05-23.192 39.03-53.364 60.525-84.956 60.525-31.597 0-61.771-21.494-84.966-60.523-24.342-40.961-37.748-95.671-37.748-154.05v-56.693c0-0.78 0.634-1.413 1.412-1.413h242.59c0.78 0 1.414 0.634 1.414 1.413zm72.639-6.611c-6.702 41.208-29.074 78.51-61.569 104.19 8.268-30.283 12.631-63.395 12.631-97.58v-21.802h35.773c3.938 0 7.66 1.723 10.214 4.726 2.518 2.961 3.566 6.678 2.951 10.465z" fill="#f95f00" stroke-width="2.3996"/>
   </g>
   <g fill="#f95f00" stroke-width="2.3996">
    <path d="m327.94 121.66c-1.395-4.288-5.103-7.414-9.566-8.064l-35.758-5.196-15.991-32.402c-1.997-4.044-6.116-6.605-10.626-6.605-4.511 0-8.63 2.561-10.626 6.605l-15.991 32.402-35.758 5.196c-4.464 0.648-8.172 3.775-9.566 8.065-1.393 4.291-0.231 8.999 2.999 12.148l25.875 25.221-6.109 35.613c-0.763 4.446 1.064 8.938 4.714 11.59 3.648 2.651 8.487 3 12.479 0.902l31.983-16.813 31.982 16.813c1.734 0.911 3.627 1.36 5.512 1.36 2.456 0 4.902-0.763 6.966-2.263 3.65-2.652 5.477-7.144 4.714-11.59l-6.109-35.613 25.875-25.221c3.232-3.148 4.394-7.857 3.001-12.148zm-49.877 24.747c-2.793 2.722-4.068 6.644-3.408 10.489l3.102 18.09-16.245-8.541c-1.725-0.908-3.62-1.36-5.514-1.36s-3.788 0.454-5.514 1.36l-16.245 8.541 3.102-18.09c0.66-3.844-0.615-7.766-3.408-10.489l-13.141-12.81 18.162-2.64c3.859-0.56 7.196-2.985 8.922-6.482l8.123-16.458 8.122 16.458c1.727 3.497 5.062 5.921 8.922 6.482l18.162 2.64z" fill="#f95f00" stroke-width="2.3996"/>
   </g>
  </g>
 </g>
</svg>
