<?xml version="1.0" encoding="UTF-8"?>
<svg width="24" height="24" version="1.0" viewBox="0 0 600 600" xmlns="http://www.w3.org/2000/svg" xmlns:cc="http://creativecommons.org/ns#" xmlns:dc="http://purl.org/dc/elements/1.1/" xmlns:rdf="http://www.w3.org/1999/02/22-rdf-syntax-ns#">
 <g transform="translate(0 600) scale(.1 -.1)" fill="#fff">
  <path d="m2680 5985c-1196-133-2198-960-2549-2101-97-318-131-566-126-929 2-137 7-268 10-290 47-301 56-340 111-530 166-562 524-1093 994-1472 355-286 775-489 1215-588 119-26 131-29 215-40 25-3 54-8 65-10 132-26 637-27 775 0 12 2 43 7 68 10 26 3 54 7 62 9 8 3 31 7 50 10 116 17 367 91 539 158 487 190 956 546 1274 968 32 41 62 81 69 89 60 71 318 539 318 576 0 4 7 21 15 38 63 134 161 501 181 672 3 33 8 63 10 66 25 42 24 654-1 774-3 11-6 34-9 50-13 91-21 130-43 225-13 58-26 114-28 124-5 24-63 203-75 231-4 11-18 47-31 80-32 85-131 293-180 378-231 401-565 760-944 1012-306 204-651 353-1e3 432-69 15-223 41-290 49-33 4-69 9-80 11-52 12-508 10-615-2zm550-309c350-34 653-118 952-266 641-316 1118-854 1356-1530 28-82 68-220 77-268 2-13 6-31 9-40 7-23 14-62 31-171 41-263 39-580-5-835-37-215-109-470-161-568-5-10-9-22-9-28 0-16-109-236-158-320-49-83-171-264-199-295-10-12-34-41-53-65-76-97-238-260-365-364-227-189-490-339-780-448-104-39-286-91-365-104-14-2-38-7-55-11-247-54-704-63-913-17-13 3-43 7-65 10-73 10-339 81-437 117-368 135-682 331-960 601-47 45-110 111-140 147-30 35-58 66-61 69-16 12-118 152-179 244-212 321-377 779-415 1151-3 22-7 65-11 95-3 30-6 132-6 225 1 344 65 675 194 1e3 43 108 144 311 183 370 14 20 25 38 25 41 0 10 139 205 199 279 67 83 260 280 351 357 430 365 990 590 1554 624 55 4 102 7 103 8 6 4 240-2 303-8z"/>
  <path d="m2945 4942c-113-12-254-86-340-177-138-147-229-301-316-531-55-148-91-281-125-469-3-16-14-73-24-125-11-52-22-108-25-125-3-16-13-70-23-120-11-49-18-91-18-92 1 0 118-4 261-8s280-8 305-9l45-1 273 340c150 187 286 358 301 380 173 250 197 539 64 763-75 127-217 192-378 174z"/>
  <path d="m3727 3500c-195-51-357-196-452-405-26-57-84-250-121-405-2-8-19-76-39-150s-38-145-41-157c-2-12-9-35-15-50-6-16-10-29-9-31 1-1-8-45-21-96l-22-94 39-48c48-60 51-64 115-144 28-36 62-78 75-95 13-16 51-66 85-109l62-80 61 66c34 35 89 97 124 136s73 82 85 95c203 222 231 256 331 406 90 134 168 288 209 412 38 112 48 166 52 272 9 242-127 444-329 487-61 13-109 11-189-10z"/>
  <path d="m1918 2827c-36-86-43-111-43-167 2-186 177-310 355-250 84 28 135 89 193 230 9 19 27 64 42 100s36 85 47 108c11 24 17 46 14 49-5 5-56 8-289 18-86 3-184 8-216 10l-60 3-43-101z"/>
  <path d="m2781 1746c-13-15-81-126-81-131 0-1-24-42-53-91-68-114-80-145-82-208-3-86 51-196 114-231 60-33 79-38 146-41 57-2 79 2 118 21 67 32 89 55 153 162l56 94-83 102c-46 56-85 104-88 107-4 3-44 52-90 110s-87 109-91 113-12 1-19-7z"/>
 </g>
</svg>
