<svg width="24" height="24" xmlns="http://www.w3.org/2000/svg" version="1.0" viewBox="0 0 600 600"><g fill="#fff"><path d="M268 2a301 301 0 00-156 532c36 28 78 49 122 59l21 4 7 1a379 379 0 0095-3 303 303 0 00181-113l7-9a399 399 0 0033-61 316 316 0 0019-151v-5l-5-23-3-12a363 363 0 00-28-69A308 308 0 00338 2l-8-1h-62zm55 30a268 268 0 11-64 533l-6-1-44-11A267 267 0 0134 332l-2-10v-22a270 270 0 0195-205c43-37 99-59 155-63h41z"/><path d="M295 106c-12 1-26 8-34 17-14 15-23 31-32 54-6 14-9 28-13 46l-2 13-2 12-3 12-2 10h26l31 1h5l27-33 30-38c17-25 20-54 6-77-7-12-21-19-37-17zM373 250c-20 5-36 20-45 41a330 330 0 00-16 55 1022 1022 0 00-9 33l-2 10 4 5 11 14 8 10 8 10 6 8 6-6 13-14 8-9a259 259 0 0054-82c4-11 5-17 6-27 0-25-13-45-33-49-6-1-11-1-19 1zM192 317c-4 9-4 11-4 17 0 19 17 31 35 25 8-3 14-9 19-23l5-10 4-11 2-5-29-1-22-1-6-1-4 10zM278 425l-8 13-5 10c-7 11-8 14-9 20 0 9 6 20 12 24 6 3 8 3 14 4l12-2c7-4 9-6 16-17l5-9-8-10-9-11-9-11-9-11c-5-6-1 0-2 0z"/></g></svg>
