<svg xmlns="http://www.w3.org/2000/svg" width="153.635" height="153.635" viewBox="0 0 40.649 40.649">
    <g transform="translate(-119.527 -57.45)">
        <circle cx="139.851" cy="77.774" r="18.976" opacity=".98" fill="none" stroke="#7ebc01" stroke-width="2.697"/>
        <path d="M123.325 87.1a18.976 18.976 0 01.158-18.927 18.976 18.976 0 0116.442-9.375" opacity=".98" fill="none"
              stroke="#ff5b01" stroke-width="2.697" stroke-opacity=".976"/>
        <g fill="#ff5b01" fill-opacity=".976">
            <path d="M137.815 90.621a1.797 1.797 0 002.46-.638l.591-1.005-2.427-2.963-1.262 2.146a1.799 1.799 0 00.638 2.46zM139.885 83.667l2.531 3.216 2.994-3.302c2.535-3.147 3.38-6.023 2.322-7.892-.622-1.095-1.698-1.474-2.49-1.363a.293.293 0 01-.026.002c-.006 0-.69.045-1.495.498-1.075.603-1.852 1.612-2.313 2.997zM136.738 78.43l-3.826-.174-.453 1.076a1.797 1.797 0 103.313 1.393zM133.664 75.761l4.092.106 3.775-4.714c.834-1.197 1.177-2.424 1.019-3.646-.119-.917-.491-1.49-.495-1.497a.36.36 0 01-.014-.022c-.384-.7-1.33-1.337-2.58-1.18-2.132.268-3.931 2.666-4.94 6.58z"/>
        </g>
    </g>
</svg>