<?xml version="1.0" encoding="UTF-8" standalone="no"?>
<!-- Created with Inkscape (http://www.inkscape.org/) -->

<svg
   xmlns:dc="http://purl.org/dc/elements/1.1/"
   xmlns:cc="http://creativecommons.org/ns#"
   xmlns:rdf="http://www.w3.org/1999/02/22-rdf-syntax-ns#"
   xmlns:svg="http://www.w3.org/2000/svg"
   xmlns="http://www.w3.org/2000/svg"
   xmlns:sodipodi="http://sodipodi.sourceforge.net/DTD/sodipodi-0.dtd"
   xmlns:inkscape="http://www.inkscape.org/namespaces/inkscape"
   width="41.049274mm"
   height="41.049274mm"
   viewBox="0 0 41.049274 41.049274"
   version="1.1"
   id="svg1114"
   inkscape:version="0.92.4 (5da689c313, 2019-01-14)"
   sodipodi:docname="icono.svg">
  <defs
     id="defs1108" />
  <sodipodi:namedview
     id="base"
     pagecolor="#ffffff"
     bordercolor="#666666"
     borderopacity="1.0"
     inkscape:pageopacity="0.0"
     inkscape:pageshadow="2"
     inkscape:zoom="0.7"
     inkscape:cx="172.45446"
     inkscape:cy="-99.825846"
     inkscape:document-units="mm"
     inkscape:current-layer="layer1"
     showgrid="false"
     fit-margin-top="0"
     fit-margin-left="0"
     fit-margin-right="0"
     fit-margin-bottom="0"
     inkscape:window-width="1920"
     inkscape:window-height="1011"
     inkscape:window-x="0"
     inkscape:window-y="0"
     inkscape:window-maximized="1" />
  <metadata
     id="metadata1111">
    <rdf:RDF>
      <cc:Work
         rdf:about="">
        <dc:format>image/svg+xml</dc:format>
        <dc:type
           rdf:resource="http://purl.org/dc/dcmitype/StillImage" />
        <dc:title></dc:title>
      </cc:Work>
    </rdf:RDF>
  </metadata>
  <g
     inkscape:label="Capa 1"
     inkscape:groupmode="layer"
     id="layer1"
     transform="translate(-60.362265,-83.707502)">
    <circle
       r="18.976137"
       cy="104.23214"
       cx="80.886902"
       id="circle1028"
       style="opacity:0.98000004;fill:none;fill-opacity:0.98039216;stroke:#7ebc01;stroke-width:3.09699988;stroke-miterlimit:4;stroke-dasharray:none;stroke-opacity:1" />
    <path
       sodipodi:open="true"
       d="m 64.360223,113.55752 a 18.976137,18.976137 0 0 1 0.158426,-18.926113 18.976137,18.976137 0 0 1 16.44163,-9.375263"
       sodipodi:end="4.7162558"
       sodipodi:start="2.6278657"
       sodipodi:ry="18.976137"
       sodipodi:rx="18.976137"
       sodipodi:cy="104.23214"
       sodipodi:cx="80.886902"
       sodipodi:type="arc"
       style="opacity:0.98000004;fill:none;fill-opacity:0.97647059;stroke:#ff5b01;stroke-width:3.09699988;stroke-miterlimit:4;stroke-dasharray:none;stroke-opacity:0.97647059"
       id="path1030" />
    <g
       style="fill:#f95f00;fill-opacity:1;stroke-width:2.39959955;stroke-miterlimit:4;stroke-dasharray:none"
       transform="matrix(0.04167362,0,0,0.04167362,70.218455,93.563714)"
       id="g1074">
      <g
         style="fill:#f95f00;fill-opacity:1;stroke-width:2.39959955;stroke-miterlimit:4;stroke-dasharray:none"
         id="g1036">
        <g
           style="fill:#f95f00;fill-opacity:1;stroke-width:2.39959955;stroke-miterlimit:4;stroke-dasharray:none"
           id="g1034">
          <path
             style="fill:#f95f00;fill-opacity:1;stroke-width:2.39959955;stroke-miterlimit:4;stroke-dasharray:none"
             inkscape:connector-curvature="0"
             d="M 466.45,49.374 C 459.385,41.066 449.082,36.303 438.183,36.303 H 402.41 V 25.113 C 402.41,11.266 391.143,0 377.297,0 H 134.705 c -13.848,0 -25.112,11.266 -25.112,25.112 v 11.19 H 73.816 c -10.899,0 -21.203,4.764 -28.267,13.071 -6.992,8.221 -10.014,19.019 -8.289,29.624 9.4,57.8 45.775,108.863 97.4,136.872 4.717,11.341 10.059,22.083 16.008,32.091 19.002,31.975 42.625,54.073 68.627,64.76 2.635,26.644 -15.094,51.885 -41.794,57.9 -0.057,0.013 -0.097,0.033 -0.153,0.046 -5.211,1.245 -9.09,5.921 -9.09,11.513 v 54.363 h -21.986 c -19.602,0 -35.549,15.947 -35.549,35.549 v 28.058 c 0,6.545 5.305,11.85 11.85,11.85 H 390.56 c 6.545,0 11.85,-5.305 11.85,-11.85 v -28.058 c 0,-19.602 -15.947,-35.549 -35.549,-35.549 H 344.873 V 382.18 c 0,-5.603 -3.893,-10.286 -9.118,-11.52 -0.049,-0.012 -0.096,-0.028 -0.145,-0.04 -26.902,-6.055 -44.664,-31.55 -41.752,-58.394 25.548,-10.86 48.757,-32.761 67.479,-64.264 5.949,-10.009 11.29,-20.752 16.008,-32.095 51.622,-28.01 87.995,-79.072 97.395,-136.87 1.725,-10.605 -1.297,-21.402 -8.29,-29.623 z M 60.652,75.192 C 60.036,71.405 61.083,67.688 63.601,64.726 66.156,61.722 69.878,60 73.815,60 h 35.777 v 21.802 c 0,34.186 4.363,67.3 12.632,97.583 C 89.728,153.706 67.354,116.403 60.652,75.192 Z m 306.209,385.051 c 6.534,0 11.85,5.316 11.85,11.85 v 16.208 H 134.422 v -16.208 c 0,-6.534 5.316,-11.85 11.85,-11.85 z M 321.173,394.03 v 42.513 H 191.96 V 394.03 Z m -98.136,-23.699 c 2.929,-3.224 5.607,-6.719 8.002,-10.46 7.897,-12.339 12.042,-26.357 12.228,-40.674 4.209,0.573 8.457,0.88 12.741,0.88 4.661,0 9.279,-0.358 13.852,-1.036 0.27,19.239 7.758,37.45 20.349,51.289 H 223.037 Z M 378.709,81.803 c 0,58.379 -13.406,113.089 -37.747,154.049 -23.192,39.03 -53.364,60.525 -84.956,60.525 -31.597,0 -61.771,-21.494 -84.966,-60.523 C 146.698,194.893 133.292,140.183 133.292,81.805 V 25.112 c 0,-0.78 0.634,-1.413 1.412,-1.413 h 242.591 c 0.78,0 1.414,0.634 1.414,1.413 z m 72.639,-6.611 c -6.702,41.208 -29.074,78.51 -61.569,104.191 8.268,-30.283 12.631,-63.395 12.631,-97.58 V 60.001 h 35.773 c 3.938,0 7.66,1.723 10.214,4.726 2.518,2.961 3.566,6.678 2.951,10.465 z"
             id="path1032" />
        </g>
      </g>
      <g
         style="fill:#f95f00;fill-opacity:1;stroke-width:2.39959955;stroke-miterlimit:4;stroke-dasharray:none"
         id="g1042">
        <g
           style="fill:#f95f00;fill-opacity:1;stroke-width:2.39959955;stroke-miterlimit:4;stroke-dasharray:none"
           id="g1040">
          <path
             style="fill:#f95f00;fill-opacity:1;stroke-width:2.39959955;stroke-miterlimit:4;stroke-dasharray:none"
             inkscape:connector-curvature="0"
             d="m 327.941,121.658 c -1.395,-4.288 -5.103,-7.414 -9.566,-8.064 L 282.617,108.398 266.626,75.996 C 264.629,71.952 260.51,69.391 256,69.391 c -4.511,0 -8.63,2.561 -10.626,6.605 l -15.991,32.402 -35.758,5.196 c -4.464,0.648 -8.172,3.775 -9.566,8.065 -1.393,4.291 -0.231,8.999 2.999,12.148 l 25.875,25.221 -6.109,35.613 c -0.763,4.446 1.064,8.938 4.714,11.59 3.648,2.651 8.487,3 12.479,0.902 L 256,190.32 l 31.982,16.813 c 1.734,0.911 3.627,1.36 5.512,1.36 2.456,0 4.902,-0.763 6.966,-2.263 3.65,-2.652 5.477,-7.144 4.714,-11.59 l -6.109,-35.613 25.875,-25.221 c 3.232,-3.148 4.394,-7.857 3.001,-12.148 z m -49.877,24.747 c -2.793,2.722 -4.068,6.644 -3.408,10.489 l 3.102,18.09 -16.245,-8.541 c -1.725,-0.908 -3.62,-1.36 -5.514,-1.36 -1.894,0 -3.788,0.454 -5.514,1.36 l -16.245,8.541 3.102,-18.09 c 0.66,-3.844 -0.615,-7.766 -3.408,-10.489 l -13.141,-12.81 18.162,-2.64 c 3.859,-0.56 7.196,-2.985 8.922,-6.482 l 8.123,-16.458 8.122,16.458 c 1.727,3.497 5.062,5.921 8.922,6.482 l 18.162,2.64 z"
             id="path1038" />
        </g>
      </g>
      <g
         style="fill:#f95f00;fill-opacity:1;stroke-width:2.39959955;stroke-miterlimit:4;stroke-dasharray:none"
         id="g1044" />
      <g
         style="fill:#f95f00;fill-opacity:1;stroke-width:2.39959955;stroke-miterlimit:4;stroke-dasharray:none"
         id="g1046" />
      <g
         style="fill:#f95f00;fill-opacity:1;stroke-width:2.39959955;stroke-miterlimit:4;stroke-dasharray:none"
         id="g1048" />
      <g
         style="fill:#f95f00;fill-opacity:1;stroke-width:2.39959955;stroke-miterlimit:4;stroke-dasharray:none"
         id="g1050" />
      <g
         style="fill:#f95f00;fill-opacity:1;stroke-width:2.39959955;stroke-miterlimit:4;stroke-dasharray:none"
         id="g1052" />
      <g
         style="fill:#f95f00;fill-opacity:1;stroke-width:2.39959955;stroke-miterlimit:4;stroke-dasharray:none"
         id="g1054" />
      <g
         style="fill:#f95f00;fill-opacity:1;stroke-width:2.39959955;stroke-miterlimit:4;stroke-dasharray:none"
         id="g1056" />
      <g
         style="fill:#f95f00;fill-opacity:1;stroke-width:2.39959955;stroke-miterlimit:4;stroke-dasharray:none"
         id="g1058" />
      <g
         style="fill:#f95f00;fill-opacity:1;stroke-width:2.39959955;stroke-miterlimit:4;stroke-dasharray:none"
         id="g1060" />
      <g
         style="fill:#f95f00;fill-opacity:1;stroke-width:2.39959955;stroke-miterlimit:4;stroke-dasharray:none"
         id="g1062" />
      <g
         style="fill:#f95f00;fill-opacity:1;stroke-width:2.39959955;stroke-miterlimit:4;stroke-dasharray:none"
         id="g1064" />
      <g
         style="fill:#f95f00;fill-opacity:1;stroke-width:2.39959955;stroke-miterlimit:4;stroke-dasharray:none"
         id="g1066" />
      <g
         style="fill:#f95f00;fill-opacity:1;stroke-width:2.39959955;stroke-miterlimit:4;stroke-dasharray:none"
         id="g1068" />
      <g
         style="fill:#f95f00;fill-opacity:1;stroke-width:2.39959955;stroke-miterlimit:4;stroke-dasharray:none"
         id="g1070" />
      <g
         style="fill:#f95f00;fill-opacity:1;stroke-width:2.39959955;stroke-miterlimit:4;stroke-dasharray:none"
         id="g1072" />
    </g>
  </g>
</svg>
