<svg id="Capa_1" enable-background="new 0 0 508.35 508.35" height="512" viewBox="0 0 508.35 508.35" width="512" xmlns="http://www.w3.org/2000/svg"><path d="m438.524 268.369c.265-12.736-4.827-25.127-13.97-33.998l-90.645-87.94c-3.314-3.216-7.983-4.54-12.494-3.545-.595.131-1.173.306-1.737.511l-112.158-140.575c-2.583-3.237-7.302-3.768-10.541-1.185-3.238 2.583-3.768 7.303-1.185 10.541l114.248 143.191-6.829 17.824-70.149 53.975c-4.4 3.386-10.325 4.183-15.465 2.079l-7.487-3.065c-10.92-4.47-22.309-7.706-33.932-9.674l-1.851-34.596c-.389-7.286-3.366-14.218-8.38-19.518l-151.411-160.048c-2.847-3.009-7.594-3.141-10.602-.294-3.009 2.847-3.141 7.593-.294 10.602l151.41 160.047c2.572 2.719 4.099 6.273 4.298 10.011l1.795 33.535c-7.736 2.214-13.976 8.575-15.627 16.904l-33.386 168.384c-.785 3.958-3.837 7.081-7.776 7.957l-44.361 9.858c-19.211 4.269-32.628 20.996-32.628 40.675v22.934c0 14 11.39 25.391 25.39 25.391h123.989c9.622 0 18.875-3.528 26.053-9.936l220.354-196.658c9.503-8.482 15.107-20.651 15.371-33.387zm-49.086-47.167-82.482 91.652c-1.768-19.681-1.698-39.524.234-59.192l6.868-69.891c1.082-.841 1.915-1.96 2.406-3.239l8.415-21.963zm-110.904-10.094 1.874-1.442-18.03 67.787c-8.082 30.388-10.452 61.594-7.086 92.81l-35.963 39.962c6.519-51.603 19.722-102.074 39.36-150.342zm-9.432 143.809c-1.249-24.78 1.351-49.468 7.772-73.608l19.869-74.7-4.48 45.587c-2.47 25.137-2.042 50.547 1.257 75.589zm144.062-64.352-220.354 196.658c-4.427 3.951-10.132 6.127-16.065 6.127h-123.989c-5.729 0-10.39-4.661-10.39-10.391v-6.229h50.072c4.142 0 7.5-3.358 7.5-7.5s-3.358-7.5-7.5-7.5h-50.072v-1.705c0-12.595 8.587-23.3 20.882-26.033l44.361-9.858c9.744-2.166 17.294-9.891 19.236-19.682l5.323-26.845h18.052c4.142 0 7.5-3.358 7.5-7.5s-3.358-7.5-7.5-7.5h-15.078l3.214-16.212h21.477c4.142 0 7.5-3.358 7.5-7.5s-3.358-7.5-7.5-7.5h-18.502l3.214-16.212h9.288c4.142 0 7.5-3.358 7.5-7.5s-3.358-7.5-7.5-7.5h-6.314l3.214-16.211h27.412c4.142 0 7.5-3.358 7.5-7.5s-3.358-7.5-7.5-7.5h-24.438l6.524-32.904c.66-3.329 3.607-5.684 6.922-5.684.298 0 .6.019.902.058 12.484 1.613 24.722 4.85 36.374 9.619l7.487 3.065c10.064 4.121 21.673 2.56 30.294-4.072l12.748-9.809-10.164 24.983c-22.781 55.989-37.102 114.872-42.617 175.052l-27.108 30.122c-1.33 1.478-3.234 2.326-5.224 2.326h-45.445c-4.142 0-7.5 3.358-7.5 7.5s3.358 7.5 7.5 7.5h45.447c6.235 0 12.204-2.658 16.374-7.292l28.72-31.914.002-.002 185.269-205.867 13.898 13.483c6.255 6.067 9.6 14.207 9.418 22.919-.181 8.714-3.862 16.708-10.364 22.51z"/><path d="m348.649 309.775-12.935 13.518c-2.863 2.993-2.759 7.74.233 10.604 1.454 1.391 3.32 2.081 5.185 2.081 1.975 0 3.947-.775 5.42-2.315l12.935-13.518c2.863-2.993 2.759-7.74-.233-10.604-2.994-2.865-7.741-2.76-10.605.234z"/><path d="m394.427 261.932-23.5 24.56c-2.863 2.993-2.759 7.74.233 10.604 1.454 1.391 3.32 2.081 5.185 2.081 1.975 0 3.947-.775 5.42-2.315l23.5-24.56c2.863-2.993 2.759-7.74-.233-10.604-2.996-2.863-7.743-2.759-10.605.234z"/><path d="m179.146 377.608h7.63c4.142 0 7.5-3.358 7.5-7.5s-3.358-7.5-7.5-7.5h-7.63c-4.142 0-7.5 3.358-7.5 7.5s3.357 7.5 7.5 7.5z"/><path d="m183.146 315.184h9.374c4.142 0 7.5-3.358 7.5-7.5s-3.358-7.5-7.5-7.5h-9.374c-4.142 0-7.5 3.358-7.5 7.5s3.357 7.5 7.5 7.5z"/><path d="m289.008 60.25h44.162c4.143 0 7.5-3.358 7.5-7.5s-3.357-7.5-7.5-7.5h-44.162c-4.143 0-7.5 3.358-7.5 7.5s3.357 7.5 7.5 7.5z"/><path d="m370.048 60.25h11.383c4.143 0 7.5-3.358 7.5-7.5s-3.357-7.5-7.5-7.5h-11.383c-4.143 0-7.5 3.358-7.5 7.5s3.357 7.5 7.5 7.5z"/><path d="m453.581 110.913c0-4.142-3.357-7.5-7.5-7.5h-82.406c-4.143 0-7.5 3.358-7.5 7.5s3.357 7.5 7.5 7.5h82.406c4.143 0 7.5-3.358 7.5-7.5z"/><path d="m499.26 327.071h-45.073c-4.143 0-7.5 3.358-7.5 7.5s3.357 7.5 7.5 7.5h45.073c4.143 0 7.5-3.358 7.5-7.5s-3.358-7.5-7.5-7.5z"/><path d="m392.813 409.933h-45.211c-4.143 0-7.5 3.358-7.5 7.5s3.357 7.5 7.5 7.5h45.211c4.143 0 7.5-3.358 7.5-7.5s-3.358-7.5-7.5-7.5z"/><path d="m436.52 409.933h-10.471c-4.143 0-7.5 3.358-7.5 7.5s3.357 7.5 7.5 7.5h10.471c4.143 0 7.5-3.358 7.5-7.5s-3.358-7.5-7.5-7.5z"/></svg>