<?xml version="1.0" encoding="UTF-8" standalone="no"?>
<!-- Created with Inkscape (http://www.inkscape.org/) -->

<svg
   xmlns:dc="http://purl.org/dc/elements/1.1/"
   xmlns:cc="http://creativecommons.org/ns#"
   xmlns:rdf="http://www.w3.org/1999/02/22-rdf-syntax-ns#"
   xmlns:svg="http://www.w3.org/2000/svg"
   xmlns="http://www.w3.org/2000/svg"
   xmlns:sodipodi="http://sodipodi.sourceforge.net/DTD/sodipodi-0.dtd"
   xmlns:inkscape="http://www.inkscape.org/namespaces/inkscape"
   width="40.649273mm"
   height="40.649277mm"
   viewBox="0 0 40.649273 40.649277"
   version="1.1"
   id="svg922"
   inkscape:version="0.92.4 (5da689c313, 2019-01-14)"
   sodipodi:docname="icono-2.svg">
  <defs
     id="defs916" />
  <sodipodi:namedview
     id="base"
     pagecolor="#ffffff"
     bordercolor="#666666"
     borderopacity="1.0"
     inkscape:pageopacity="0.0"
     inkscape:pageshadow="2"
     inkscape:zoom="1.4"
     inkscape:cx="209.46685"
     inkscape:cy="-29.890597"
     inkscape:document-units="mm"
     inkscape:current-layer="layer1"
     showgrid="false"
     fit-margin-top="0"
     fit-margin-left="0"
     fit-margin-right="0"
     fit-margin-bottom="0"
     inkscape:window-width="1920"
     inkscape:window-height="1051"
     inkscape:window-x="1920"
     inkscape:window-y="0"
     inkscape:window-maximized="1" />
  <metadata
     id="metadata919">
    <rdf:RDF>
      <cc:Work
         rdf:about="">
        <dc:format>image/svg+xml</dc:format>
        <dc:type
           rdf:resource="http://purl.org/dc/dcmitype/StillImage" />
        <dc:title></dc:title>
      </cc:Work>
    </rdf:RDF>
  </metadata>
  <g
     inkscape:label="Capa 1"
     inkscape:groupmode="layer"
     id="layer1"
     transform="translate(-119.52656,-57.449174)">
    <circle
       style="opacity:0.98000004;fill:none;fill-opacity:0.98039216;stroke:#7ebc01;stroke-width:2.69700003;stroke-miterlimit:4;stroke-dasharray:none;stroke-opacity:1"
       id="circle914"
       cx="139.8512"
       cy="77.773811"
       r="18.976137" />
    <path
       id="path916"
       style="opacity:0.98000004;fill:none;fill-opacity:0.97647059;stroke:#ff5b01;stroke-width:2.69700003;stroke-miterlimit:4;stroke-dasharray:none;stroke-opacity:0.97647059"
       sodipodi:type="arc"
       sodipodi:cx="139.8512"
       sodipodi:cy="77.773811"
       sodipodi:rx="18.976137"
       sodipodi:ry="18.976137"
       sodipodi:start="2.6278657"
       sodipodi:end="4.7162558"
       d="m 123.32452,87.099189 a 18.976137,18.976137 0 0 1 0.15842,-18.926111 18.976137,18.976137 0 0 1 16.44163,-9.375262"
       sodipodi:open="true" />
    <g
       id="g926"
       transform="matrix(0.04643954,0.02324421,-0.02324421,0.04643954,133.77947,60.148556)"
       style="fill:#ff5b01;fill-opacity:0.97647059">
      <path
         id="path918"
         d="m 332.118,489.943 a 34.6,34.6 0 0 0 36.864,-32.183 l 1.519,-22.411 -67.324,-30.1 -3.242,47.835 a 34.642,34.642 0 0 0 32.183,36.859 z"
         inkscape:connector-curvature="0"
         style="fill:#ff5b01;fill-opacity:0.97647059" />
      <path
         id="path920"
         d="m 307.837,352.35 71.305,33.561 23.085,-82.655 c 16.523,-76.042 6.307,-132.859 -28.036,-155.9 -20.142,-13.517 -41.943,-10.763 -54.613,-2.035 -0.143,0.1 -0.291,0.191 -0.442,0.277 -0.1,0.056 -11.473,6.713 -21.448,21.458 -13.3,19.65 -18.006,43.717 -14,71.538 z"
         inkscape:connector-curvature="0"
         style="fill:#ff5b01;fill-opacity:0.97647059" />
      <path
         id="path922"
         d="m 208.509,289.305 -67.382,29.979 1.473,22.416 a 34.603366,34.603366 0 1 0 69.057,-4.55 z"
         inkscape:connector-curvature="0"
         style="fill:#ff5b01;fill-opacity:0.97647059" />
      <path
         id="path924"
         d="M 132.58,269.828 203.948,236.4 228.314,122.685 c 4.055,-27.813 -0.61,-51.888 -13.868,-71.563 -9.948,-14.764 -21.312,-21.443 -21.425,-21.508 -0.14,-0.081 -0.293,-0.178 -0.426,-0.269 -12.652,-8.75 -34.447,-11.546 -54.616,1.933 -34.387,22.979 -44.708,79.778 -28.328,155.851 z"
         inkscape:connector-curvature="0"
         style="fill:#ff5b01;fill-opacity:0.97647059" />
    </g>
  </g>
</svg>
